# Blender v2.69 (sub 0) OBJ File: ''
# www.blender.org
v -1.000000 0.000000 0.000000
v -1.000000 -1.000000 0.000000
v -1.000000 0.000000 1.000000
v 5.000000 -0.000001 0.000000
v 1.000000 -0.000000 1.000000
v 1.000000 -1.000000 1.000000
v 0.000000 0.000000 -5.000000
v 1.000000 -0.000001 -1.000000
v 1.000000 -1.000001 -0.999999
v -0.000000 -1.000000 0.000000
v 1.000000 -1.000000 0.000001
v -0.000000 -1.000000 1.000000
v 0.000000 0.000000 1.000000
v 0.000000 1.000000 1.000000
v 0.000001 6.000000 0.000000
v -1.000000 1.000000 0.000000
v -1.000000 1.000000 1.000000
v -1.000000 1.000000 -1.000000
v -1.000000 0.000000 -1.000000
v -1.000000 -1.000000 -1.000000
v 1.000000 0.999999 -1.000000
v 1.000000 1.000000 0.000000
v 1.000000 1.000000 1.000000
v 0.000000 1.000000 -1.000000
v -1.000000 -1.000000 1.000000
v -0.000000 -1.000000 -1.000000
vt 1.000000 1.000000 1.0
vn -1.000000 0.000000 0.000000
vn 0.242536 0.000000 0.970142
vn 0.970142 -0.000000 -0.242536
vn -0.000000 -1.000000 0.000000
vn 0.000000 0.000000 1.000000
vn -0.980581 0.196116 0.000000
vn 0.242536 -0.000001 -0.970143
vn 0.242536 0.970142 -0.000001
vn 0.242536 0.970142 0.000000
vn -0.970143 0.000000 -0.242536
vn 0.000000 0.970143 -0.242536
vn 0.000001 0.970142 -0.242536
vn -0.000001 -1.000000 0.000000
vn 0.980581 0.196116 0.000000
vn 0.000000 0.196116 -0.980581
vn 0.242535 -0.970143 0.000000
vn -0.000001 -0.970143 -0.242536
vn 0.000000 0.196116 0.980581
vn 0.242535 -0.970143 0.000001
vn 0.242536 0.000000 -0.970143
vn -0.000000 -0.970142 -0.242536
vn -0.000000 -1.000000 0.000001
v -1.000000 1.000000 -1.000000
v -1.000000 -1.000000 -1.000000
v -1.000000 -1.000000 1.000000
v -1.000000 1.000000 1.000000
v 1.000000 0.999999 -1.000000
v 1.000000 -1.000001 -0.999999
v 1.000000 -1.000000 1.000000
v 1.000000 1.000000 1.000000
vn -1.000000 0.000000 0.000000
vn 1.000000 0.000000 0.000000
vn -0.000000 0.000000 -1.000000
vn -0.000000 -1.000000 0.000000
vn -0.000000 0.000000 1.000000
vn 0.000000 1.000000 -0.000000
vn 0.000000 -0.000001 -1.000000
f 1/1/1 2/1/1 3/1/1
f 4/1/2 5/1/2 6/1/2
f 7/1/3 8/1/3 9/1/3
f 10/1/4 11/1/4 12/1/4
f 13/1/5 5/1/5 14/1/5
f 15/1/6 16/1/6 17/1/6
f 16/1/1 1/1/1 17/1/1
f 18/1/1 19/1/1 16/1/1
f 20/1/1 1/1/1 19/1/1
f 8/1/7 4/1/7 9/1/7
f 21/1/8 22/1/8 4/1/8
f 22/1/9 23/1/9 4/1/9
f 19/1/10 7/1/10 20/1/10
f 18/1/11 24/1/11 7/1/11
f 24/1/12 21/1/12 7/1/12
f 2/1/4 10/1/4 25/1/4
f 20/1/4 26/1/4 2/1/4
f 26/1/13 9/1/13 10/1/13
f 3/1/5 13/1/5 17/1/5
f 25/1/5 12/1/5 3/1/5
f 12/1/5 6/1/5 13/1/5
f 22/1/14 15/1/14 23/1/14
f 21/1/15 24/1/15 15/1/15
f 24/1/15 18/1/15 15/1/15
f 2/1/1 25/1/1 3/1/1
f 11/1/16 4/1/16 6/1/16
f 26/1/17 7/1/17 9/1/17
f 11/1/4 6/1/4 12/1/4
f 5/1/5 23/1/5 14/1/5
f 14/1/18 15/1/18 17/1/18
f 1/1/1 3/1/1 17/1/1
f 19/1/1 1/1/1 16/1/1
f 2/1/1 1/1/1 20/1/1
f 4/1/19 11/1/19 9/1/19
f 8/1/20 21/1/20 4/1/20
f 23/1/2 5/1/2 4/1/2
f 7/1/21 26/1/21 20/1/21
f 19/1/10 18/1/10 7/1/10
f 21/1/3 8/1/3 7/1/3
f 10/1/4 12/1/4 25/1/4
f 26/1/4 10/1/4 2/1/4
f 9/1/22 11/1/22 10/1/22
f 13/1/5 14/1/5 17/1/5
f 12/1/5 13/1/5 3/1/5
f 6/1/5 5/1/5 13/1/5
f 15/1/18 14/1/18 23/1/18
f 22/1/14 21/1/14 15/1/14
f 18/1/6 16/1/6 15/1/6
f 27/1/23 28/1/23 30/1/23
f 31/1/24 34/1/24 32/1/24
f 27/1/25 31/1/25 28/1/25
f 28/1/26 32/1/26 29/1/26
f 29/1/27 33/1/27 30/1/27
f 31/1/28 27/1/28 34/1/28
f 28/1/23 29/1/23 30/1/23
f 34/1/24 33/1/24 32/1/24
f 31/1/29 32/1/29 28/1/29
f 32/1/26 33/1/26 29/1/26
f 33/1/27 34/1/27 30/1/27
f 27/1/28 30/1/28 34/1/28
