
v 0.38268343 0.92387953 0.0000000e+0
v 0.35355339 0.92387953 0.14644661
v 0.27059805 0.92387953 0.27059805
v 0.14644661 0.92387953 0.35355339
v 2.3432602e-17 0.92387953 0.38268343
v -0.14644661 0.92387953 0.35355339
v -0.27059805 0.92387953 0.27059805
v -0.35355339 0.92387953 0.14644661
v -0.38268343 0.92387953 4.6865204e-17
v -0.35355339 0.92387953 -0.14644661
v -0.27059805 0.92387953 -0.27059805
v -0.14644661 0.92387953 -0.35355339
v -7.0297806e-17 0.92387953 -0.38268343
v 0.14644661 0.92387953 -0.35355339
v 0.27059805 0.92387953 -0.27059805
v 0.35355339 0.92387953 -0.14644661
v 0.70710678 0.70710678 0.0000000e+0
v 0.65328148 0.70710678 0.27059805
v 0.50000000 0.70710678 0.50000000
v 0.27059805 0.70710678 0.65328148
v 4.3297803e-17 0.70710678 0.70710678
v -0.27059805 0.70710678 0.65328148
v -0.50000000 0.70710678 0.50000000
v -0.65328148 0.70710678 0.27059805
v -0.70710678 0.70710678 8.6595606e-17
v -0.65328148 0.70710678 -0.27059805
v -0.50000000 0.70710678 -0.50000000
v -0.27059805 0.70710678 -0.65328148
v -1.2989341e-16 0.70710678 -0.70710678
v 0.27059805 0.70710678 -0.65328148
v 0.50000000 0.70710678 -0.50000000
v 0.65328148 0.70710678 -0.27059805
v 0.92387953 0.38268343 0.0000000e+0
v 0.85355339 0.38268343 0.35355339
v 0.65328148 0.38268343 0.65328148
v 0.35355339 0.38268343 0.85355339
v 5.6571306e-17 0.38268343 0.92387953
v -0.35355339 0.38268343 0.85355339
v -0.65328148 0.38268343 0.65328148
v -0.85355339 0.38268343 0.35355339
v -0.92387953 0.38268343 1.1314261e-16
v -0.85355339 0.38268343 -0.35355339
v -0.65328148 0.38268343 -0.65328148
v -0.35355339 0.38268343 -0.85355339
v -1.6971392e-16 0.38268343 -0.92387953
v 0.35355339 0.38268343 -0.85355339
v 0.65328148 0.38268343 -0.65328148
v 0.85355339 0.38268343 -0.35355339
v 1.00000000 6.1232340e-17 0.0000000e+0
v 0.92387953 6.1232340e-17 0.38268343
v 0.70710678 6.1232340e-17 0.70710678
v 0.38268343 6.1232340e-17 0.92387953
v 6.1232340e-17 6.1232340e-17 1.00000000
v -0.38268343 6.1232340e-17 0.92387953
v -0.70710678 6.1232340e-17 0.70710678
v -0.92387953 6.1232340e-17 0.38268343
v -1.00000000 6.1232340e-17 1.2246468e-16
v -0.92387953 6.1232340e-17 -0.38268343
v -0.70710678 6.1232340e-17 -0.70710678
v -0.38268343 6.1232340e-17 -0.92387953
v -1.8369702e-16 6.1232340e-17 -1.00000000
v 0.38268343 6.1232340e-17 -0.92387953
v 0.70710678 6.1232340e-17 -0.70710678
v 0.92387953 6.1232340e-17 -0.38268343
v 0.92387953 -0.38268343 0.0000000e+0
v 0.85355339 -0.38268343 0.35355339
v 0.65328148 -0.38268343 0.65328148
v 0.35355339 -0.38268343 0.85355339
v 5.6571306e-17 -0.38268343 0.92387953
v -0.35355339 -0.38268343 0.85355339
v -0.65328148 -0.38268343 0.65328148
v -0.85355339 -0.38268343 0.35355339
v -0.92387953 -0.38268343 1.1314261e-16
v -0.85355339 -0.38268343 -0.35355339
v -0.65328148 -0.38268343 -0.65328148
v -0.35355339 -0.38268343 -0.85355339
v -1.6971392e-16 -0.38268343 -0.92387953
v 0.35355339 -0.38268343 -0.85355339
v 0.65328148 -0.38268343 -0.65328148
v 0.85355339 -0.38268343 -0.35355339
v 0.70710678 -0.70710678 0.0000000e+0
v 0.65328148 -0.70710678 0.27059805
v 0.50000000 -0.70710678 0.50000000
v 0.27059805 -0.70710678 0.65328148
v 4.3297803e-17 -0.70710678 0.70710678
v -0.27059805 -0.70710678 0.65328148
v -0.50000000 -0.70710678 0.50000000
v -0.65328148 -0.70710678 0.27059805
v -0.70710678 -0.70710678 8.6595606e-17
v -0.65328148 -0.70710678 -0.27059805
v -0.50000000 -0.70710678 -0.50000000
v -0.27059805 -0.70710678 -0.65328148
v -1.2989341e-16 -0.70710678 -0.70710678
v 0.27059805 -0.70710678 -0.65328148
v 0.50000000 -0.70710678 -0.50000000
v 0.65328148 -0.70710678 -0.27059805
v 0.38268343 -0.92387953 0.0000000e+0
v 0.35355339 -0.92387953 0.14644661
v 0.27059805 -0.92387953 0.27059805
v 0.14644661 -0.92387953 0.35355339
v 2.3432602e-17 -0.92387953 0.38268343
v -0.14644661 -0.92387953 0.35355339
v -0.27059805 -0.92387953 0.27059805
v -0.35355339 -0.92387953 0.14644661
v -0.38268343 -0.92387953 4.6865204e-17
v -0.35355339 -0.92387953 -0.14644661
v -0.27059805 -0.92387953 -0.27059805
v -0.14644661 -0.92387953 -0.35355339
v -7.0297806e-17 -0.92387953 -0.38268343
v 0.14644661 -0.92387953 -0.35355339
v 0.27059805 -0.92387953 -0.27059805
v 0.35355339 -0.92387953 -0.14644661
v 0.0000000e+0 1.00000000 0.0000000e+0
v 0.0000000e+0 -1.00000000 0.0000000e+0
vn 0.44254783 0.89674490 -8.0352547e-17
vn 0.35310199 0.92408176 0.14625963
vn 0.31292857 0.89674490 0.31292857
vn 0.14625963 0.92408176 0.35310199
vn 2.3633102e-18 0.89674490 0.44254783
vn -0.14625963 0.92408176 0.35310199
vn -0.31292857 0.89674490 0.31292857
vn -0.35310199 0.92408176 0.14625963
vn -0.44254783 0.89674490 2.5996412e-17
vn -0.35310199 0.92408176 -0.14625963
vn -0.31292857 0.89674490 -0.31292857
vn -0.14625963 0.92408176 -0.35310199
vn -3.7812963e-17 0.89674490 -0.44254783
vn 0.14625963 0.92408176 -0.35310199
vn 0.31292857 0.89674490 -0.31292857
vn 0.35310199 0.92408176 -0.14625963
vn 0.70658450 0.70762868 1.3574215e-16
vn 0.65279895 0.70762868 0.27039818
vn 0.49963069 0.70762868 0.49963069
vn 0.27039818 0.70762868 0.65279895
vn 7.1443235e-18 0.70762868 0.70658450
vn -0.27039818 0.70762868 0.65279895
vn -0.49963069 0.70762868 0.49963069
vn -0.65279895 0.70762868 0.27039818
vn -0.70658450 0.70762868 1.1430918e-16
vn -0.65279895 0.70762868 -0.27039818
vn -0.49963069 0.70762868 -0.49963069
vn -0.27039818 0.70762868 -0.65279895
vn 1.4288647e-17 0.70762868 -0.70658450
vn 0.27039818 0.70762868 -0.65279895
vn 0.49963069 0.70762868 -0.49963069
vn 0.65279895 0.70762868 -0.27039818
vn 0.92368212 0.38315969 -8.6274346e-17
vn 0.85337100 0.38315969 0.35347784
vn 0.65314189 0.38315969 0.65314189
vn 0.35347784 0.38315969 0.85337100
vn 1.0784293e-17 0.38315969 0.92368212
vn -0.35347784 0.38315969 0.85337100
vn -0.65314189 0.38315969 0.65314189
vn -0.85337100 0.38315969 0.35347784
vn -0.92368212 0.38315969 1.4738534e-16
vn -0.85337100 0.38315969 -0.35347784
vn -0.65314189 0.38315969 -0.65314189
vn -0.35347784 0.38315969 -0.85337100
vn -4.3137173e-17 0.38315969 -0.92368212
vn 0.35347784 0.38315969 -0.85337100
vn 0.65314189 0.38315969 -0.65314189
vn 0.85337100 0.38315969 -0.35347784
vn 1.00000000 0.0000000e+0 -1.0812319e-16
vn 0.92387953 -1.8020531e-17 0.38268343
vn 0.70710678 0.0000000e+0 0.70710678
vn 0.38268343 3.6041063e-17 0.92387953
vn 0.0000000e+0 7.2082126e-18 1.00000000
vn -0.38268343 1.8020531e-17 0.92387953
vn -0.70710678 1.4416425e-17 0.70710678
vn -0.92387953 3.6041063e-18 0.38268343
vn -1.00000000 -7.2082126e-18 1.4416425e-16
vn -0.92387953 -5.4061594e-17 -0.38268343
vn -0.70710678 -8.6498551e-17 -0.70710678
vn -0.38268343 -1.4416425e-17 -0.92387953
vn -3.6761884e-16 7.2082126e-18 -1.00000000
vn 0.38268343 0.0000000e+0 -0.92387953
vn 0.70710678 1.4416425e-17 -0.70710678
vn 0.92387953 -3.6041063e-17 -0.38268343
vn 0.92368212 -0.38315969 -1.4019581e-16
vn 0.85337100 -0.38315969 0.35347784
vn 0.65314189 -0.38315969 0.65314189
vn 0.35347784 -0.38315969 0.85337100
vn 7.1895288e-18 -0.38315969 0.92368212
vn -0.35347784 -0.38315969 0.85337100
vn -0.65314189 -0.38315969 0.65314189
vn -0.85337100 -0.38315969 0.35347784
vn -0.92368212 -0.38315969 1.5816963e-16
vn -0.85337100 -0.38315969 -0.35347784
vn -0.65314189 -0.38315969 -0.65314189
vn -0.35347784 -0.38315969 -0.85337100
vn 7.1895288e-18 -0.38315969 -0.92368212
vn 0.35347784 -0.38315969 -0.85337100
vn 0.65314189 -0.38315969 -0.65314189
vn 0.85337100 -0.38315969 -0.35347784
vn 0.70658450 -0.70762868 -6.7871073e-17
vn 0.65279895 -0.70762868 0.27039818
vn 0.49963069 -0.70762868 0.49963069
vn 0.27039818 -0.70762868 0.65279895
vn 1.0716485e-17 -0.70762868 0.70658450
vn -0.27039818 -0.70762868 0.65279895
vn -0.49963069 -0.70762868 0.49963069
vn -0.65279895 -0.70762868 0.27039818
vn -0.70658450 -0.70762868 1.1430918e-16
vn -0.65279895 -0.70762868 -0.27039818
vn -0.49963069 -0.70762868 -0.49963069
vn -0.27039818 -0.70762868 -0.65279895
vn 3.5721617e-18 -0.70762868 -0.70658450
vn 0.27039818 -0.70762868 -0.65279895
vn 0.49963069 -0.70762868 -0.49963069
vn 0.65279895 -0.70762868 -0.27039818
vn 0.44254783 -0.89674490 2.1033461e-16
vn 0.35310199 -0.92408176 0.14625963
vn 0.31292857 -0.89674490 0.31292857
vn 0.14625963 -0.92408176 0.35310199
vn 2.3633102e-17 -0.89674490 0.44254783
vn -0.14625963 -0.92408176 0.35310199
vn -0.31292857 -0.89674490 0.31292857
vn -0.35310199 -0.92408176 0.14625963
vn -0.44254783 -0.89674490 5.4356134e-17
vn -0.35310199 -0.92408176 -0.14625963
vn -0.31292857 -0.89674490 -0.31292857
vn -0.14625963 -0.92408176 -0.35310199
vn -3.5449653e-17 -0.89674490 -0.44254783
vn 0.14625963 -0.92408176 -0.35310199
vn 0.31292857 -0.89674490 -0.31292857
vn 0.35310199 -0.92408176 -0.14625963
vn -7.0801599e-18 1.00000000 -4.3365979e-17
vn -8.8501998e-18 -1.00000000 -6.2393909e-17
vt 0.0 0.0 0.0
s 1
f 1/1/1 18/1/18 17/1/17
f 1/1/1 32/1/32 16/1/16
f 1/1/1 113/1/113 2/1/2
f 2/1/2 18/1/18 1/1/1
f 2/1/2 113/1/113 3/1/3
f 3/1/3 18/1/18 2/1/2
f 3/1/3 20/1/20 19/1/19
f 3/1/3 113/1/113 4/1/4
f 4/1/4 20/1/20 3/1/3
f 4/1/4 113/1/113 5/1/5
f 5/1/5 20/1/20 4/1/4
f 5/1/5 22/1/22 21/1/21
f 5/1/5 113/1/113 6/1/6
f 6/1/6 22/1/22 5/1/5
f 6/1/6 113/1/113 7/1/7
f 7/1/7 22/1/22 6/1/6
f 7/1/7 24/1/24 23/1/23
f 7/1/7 113/1/113 8/1/8
f 8/1/8 24/1/24 7/1/7
f 8/1/8 113/1/113 9/1/9
f 9/1/9 24/1/24 8/1/8
f 9/1/9 26/1/26 25/1/25
f 9/1/9 113/1/113 10/1/10
f 10/1/10 26/1/26 9/1/9
f 10/1/10 113/1/113 11/1/11
f 11/1/11 26/1/26 10/1/10
f 11/1/11 28/1/28 27/1/27
f 11/1/11 113/1/113 12/1/12
f 12/1/12 28/1/28 11/1/11
f 12/1/12 113/1/113 13/1/13
f 13/1/13 28/1/28 12/1/12
f 13/1/13 30/1/30 29/1/29
f 13/1/13 113/1/113 14/1/14
f 14/1/14 30/1/30 13/1/13
f 14/1/14 113/1/113 15/1/15
f 15/1/15 30/1/30 14/1/14
f 15/1/15 32/1/32 31/1/31
f 15/1/15 113/1/113 16/1/16
f 16/1/16 32/1/32 15/1/15
f 16/1/16 113/1/113 1/1/1
f 17/1/17 32/1/32 1/1/1
f 17/1/17 33/1/33 32/1/32
f 18/1/18 33/1/33 17/1/17
f 18/1/18 35/1/35 34/1/34
f 19/1/19 18/1/18 3/1/3
f 19/1/19 35/1/35 18/1/18
f 20/1/20 35/1/35 19/1/19
f 20/1/20 37/1/37 36/1/36
f 21/1/21 20/1/20 5/1/5
f 21/1/21 37/1/37 20/1/20
f 22/1/22 37/1/37 21/1/21
f 22/1/22 39/1/39 38/1/38
f 23/1/23 22/1/22 7/1/7
f 23/1/23 39/1/39 22/1/22
f 24/1/24 39/1/39 23/1/23
f 24/1/24 41/1/41 40/1/40
f 25/1/25 24/1/24 9/1/9
f 25/1/25 41/1/41 24/1/24
f 26/1/26 41/1/41 25/1/25
f 26/1/26 43/1/43 42/1/42
f 27/1/27 26/1/26 11/1/11
f 27/1/27 43/1/43 26/1/26
f 28/1/28 43/1/43 27/1/27
f 28/1/28 45/1/45 44/1/44
f 29/1/29 28/1/28 13/1/13
f 29/1/29 45/1/45 28/1/28
f 30/1/30 45/1/45 29/1/29
f 30/1/30 47/1/47 46/1/46
f 31/1/31 30/1/30 15/1/15
f 31/1/31 47/1/47 30/1/30
f 32/1/32 33/1/33 48/1/48
f 32/1/32 47/1/47 31/1/31
f 33/1/33 50/1/50 49/1/49
f 33/1/33 64/1/64 48/1/48
f 34/1/34 33/1/33 18/1/18
f 34/1/34 50/1/50 33/1/33
f 35/1/35 50/1/50 34/1/34
f 35/1/35 52/1/52 51/1/51
f 36/1/36 35/1/35 20/1/20
f 36/1/36 52/1/52 35/1/35
f 37/1/37 52/1/52 36/1/36
f 37/1/37 54/1/54 53/1/53
f 38/1/38 37/1/37 22/1/22
f 38/1/38 54/1/54 37/1/37
f 39/1/39 54/1/54 38/1/38
f 39/1/39 56/1/56 55/1/55
f 40/1/40 39/1/39 24/1/24
f 40/1/40 56/1/56 39/1/39
f 41/1/41 56/1/56 40/1/40
f 41/1/41 58/1/58 57/1/57
f 42/1/42 41/1/41 26/1/26
f 42/1/42 58/1/58 41/1/41
f 43/1/43 58/1/58 42/1/42
f 43/1/43 60/1/60 59/1/59
f 44/1/44 43/1/43 28/1/28
f 44/1/44 60/1/60 43/1/43
f 45/1/45 60/1/60 44/1/44
f 45/1/45 62/1/62 61/1/61
f 46/1/46 45/1/45 30/1/30
f 46/1/46 62/1/62 45/1/45
f 47/1/47 62/1/62 46/1/46
f 47/1/47 64/1/64 63/1/63
f 48/1/48 47/1/47 32/1/32
f 48/1/48 64/1/64 47/1/47
f 49/1/49 64/1/64 33/1/33
f 49/1/49 65/1/65 64/1/64
f 50/1/50 65/1/65 49/1/49
f 50/1/50 67/1/67 66/1/66
f 51/1/51 50/1/50 35/1/35
f 51/1/51 67/1/67 50/1/50
f 52/1/52 67/1/67 51/1/51
f 52/1/52 69/1/69 68/1/68
f 53/1/53 52/1/52 37/1/37
f 53/1/53 69/1/69 52/1/52
f 54/1/54 69/1/69 53/1/53
f 54/1/54 71/1/71 70/1/70
f 55/1/55 54/1/54 39/1/39
f 55/1/55 71/1/71 54/1/54
f 56/1/56 71/1/71 55/1/55
f 56/1/56 73/1/73 72/1/72
f 57/1/57 56/1/56 41/1/41
f 57/1/57 73/1/73 56/1/56
f 58/1/58 73/1/73 57/1/57
f 58/1/58 75/1/75 74/1/74
f 59/1/59 58/1/58 43/1/43
f 59/1/59 75/1/75 58/1/58
f 60/1/60 75/1/75 59/1/59
f 60/1/60 77/1/77 76/1/76
f 61/1/61 60/1/60 45/1/45
f 61/1/61 77/1/77 60/1/60
f 62/1/62 77/1/77 61/1/61
f 62/1/62 79/1/79 78/1/78
f 63/1/63 62/1/62 47/1/47
f 63/1/63 79/1/79 62/1/62
f 64/1/64 65/1/65 80/1/80
f 64/1/64 79/1/79 63/1/63
f 65/1/65 82/1/82 81/1/81
f 65/1/65 96/1/96 80/1/80
f 66/1/66 65/1/65 50/1/50
f 66/1/66 82/1/82 65/1/65
f 67/1/67 82/1/82 66/1/66
f 67/1/67 84/1/84 83/1/83
f 68/1/68 67/1/67 52/1/52
f 68/1/68 84/1/84 67/1/67
f 69/1/69 84/1/84 68/1/68
f 69/1/69 86/1/86 85/1/85
f 70/1/70 69/1/69 54/1/54
f 70/1/70 86/1/86 69/1/69
f 71/1/71 86/1/86 70/1/70
f 71/1/71 88/1/88 87/1/87
f 72/1/72 71/1/71 56/1/56
f 72/1/72 88/1/88 71/1/71
f 73/1/73 88/1/88 72/1/72
f 73/1/73 90/1/90 89/1/89
f 74/1/74 73/1/73 58/1/58
f 74/1/74 90/1/90 73/1/73
f 75/1/75 90/1/90 74/1/74
f 75/1/75 92/1/92 91/1/91
f 76/1/76 75/1/75 60/1/60
f 76/1/76 92/1/92 75/1/75
f 77/1/77 92/1/92 76/1/76
f 77/1/77 94/1/94 93/1/93
f 78/1/78 77/1/77 62/1/62
f 78/1/78 94/1/94 77/1/77
f 79/1/79 94/1/94 78/1/78
f 79/1/79 96/1/96 95/1/95
f 80/1/80 79/1/79 64/1/64
f 80/1/80 96/1/96 79/1/79
f 81/1/81 96/1/96 65/1/65
f 81/1/81 97/1/97 96/1/96
f 82/1/82 97/1/97 81/1/81
f 82/1/82 99/1/99 98/1/98
f 83/1/83 82/1/82 67/1/67
f 83/1/83 99/1/99 82/1/82
f 84/1/84 99/1/99 83/1/83
f 84/1/84 101/1/101 100/1/100
f 85/1/85 84/1/84 69/1/69
f 85/1/85 101/1/101 84/1/84
f 86/1/86 101/1/101 85/1/85
f 86/1/86 103/1/103 102/1/102
f 87/1/87 86/1/86 71/1/71
f 87/1/87 103/1/103 86/1/86
f 88/1/88 103/1/103 87/1/87
f 88/1/88 105/1/105 104/1/104
f 89/1/89 88/1/88 73/1/73
f 89/1/89 105/1/105 88/1/88
f 90/1/90 105/1/105 89/1/89
f 90/1/90 107/1/107 106/1/106
f 91/1/91 90/1/90 75/1/75
f 91/1/91 107/1/107 90/1/90
f 92/1/92 107/1/107 91/1/91
f 92/1/92 109/1/109 108/1/108
f 93/1/93 92/1/92 77/1/77
f 93/1/93 109/1/109 92/1/92
f 94/1/94 109/1/109 93/1/93
f 94/1/94 111/1/111 110/1/110
f 95/1/95 94/1/94 79/1/79
f 95/1/95 111/1/111 94/1/94
f 96/1/96 97/1/97 112/1/112
f 96/1/96 111/1/111 95/1/95
f 97/1/97 114/1/114 112/1/112
f 98/1/98 97/1/97 82/1/82
f 98/1/98 114/1/114 97/1/97
f 99/1/99 114/1/114 98/1/98
f 100/1/100 99/1/99 84/1/84
f 100/1/100 114/1/114 99/1/99
f 101/1/101 114/1/114 100/1/100
f 102/1/102 101/1/101 86/1/86
f 102/1/102 114/1/114 101/1/101
f 103/1/103 114/1/114 102/1/102
f 104/1/104 103/1/103 88/1/88
f 104/1/104 114/1/114 103/1/103
f 105/1/105 114/1/114 104/1/104
f 106/1/106 105/1/105 90/1/90
f 106/1/106 114/1/114 105/1/105
f 107/1/107 114/1/114 106/1/106
f 108/1/108 107/1/107 92/1/92
f 108/1/108 114/1/114 107/1/107
f 109/1/109 114/1/114 108/1/108
f 110/1/110 109/1/109 94/1/94
f 110/1/110 114/1/114 109/1/109
f 111/1/111 114/1/114 110/1/110
f 112/1/112 111/1/111 96/1/96
f 112/1/112 114/1/114 111/1/111
